<?xml version="1.0" encoding="utf-8"?>
<!-- Generator: Adobe Illustrator 26.0.1, SVG Export Plug-In . SVG Version: 6.00 Build 0)  -->
<svg version="1.0" id="Layer_1" xmlns="http://www.w3.org/2000/svg" xmlns:xlink="http://www.w3.org/1999/xlink" x="0px" y="0px"
	 viewBox="0 0 781.56 97.62" enable-background="new 0 0 781.56 97.62" xml:space="preserve">
<g>
	<g>
		<path d="M54.05,60.95H17.24v36.56H0V11.58h17.23v35.33h36.81V11.58h17.23v85.93H54.05V60.95z"/>
		<path d="M86.42,11.09c0-5.66,4.43-10.09,10.59-10.09c6.03,0,10.59,4.43,10.59,10.09s-4.55,10.09-10.59,10.09
			C90.85,21.18,86.42,16.75,86.42,11.09z M88.26,29.31h17.23v68.2H88.26V29.31z"/>
		<path d="M122.49,6.41h17.23v51.83l22.9-28.93h22.41l-30.04,34.22l30.28,33.98h-22.41l-23.14-29.05v29.05h-17.23V6.41z"/>
		<path d="M289.79,59.84c0-10.83-6.03-16.5-15.14-16.5c-9.23,0-15.27,5.66-15.27,16.5v37.67h-17.24V59.84
			c0-10.83-6.03-16.5-15.14-16.5c-9.36,0-15.39,5.66-15.39,16.5v37.67h-17.23v-68.2h17.23v8.25c4.31-5.66,11.57-9.23,20.07-9.23
			c10.59,0,19.33,4.55,24.01,13.05c4.43-7.76,13.42-13.05,23.39-13.05c16.37,0,27.95,10.34,27.95,29.18v40.01h-17.24V59.84z"/>
		<path d="M350.1,28.2c10.96,0,18.47,5.17,22.53,10.83v-9.73h17.36v68.2h-17.36v-9.97c-4.06,5.91-11.82,11.08-22.65,11.08
			c-17.24,0-31.02-14.16-31.02-35.46C318.95,41.87,332.74,28.2,350.1,28.2z M354.53,43.34c-9.23,0-17.97,6.89-17.97,19.82
			s8.74,20.31,17.97,20.31c9.48,0,18.1-7.14,18.1-20.07S364.01,43.34,354.53,43.34z"/>
		<path d="M409.56,43.47h-8.12V29.31h8.12V12.44h17.36v16.87h15.27v14.16h-15.27v32.99c0,4.55,1.85,6.52,7.26,6.52h8v14.53h-10.83
			c-13.05,0-21.79-5.54-21.79-21.17V43.47z"/>
		<path d="M454.61,6.41h17.24v91.1h-17.24V6.41z"/>
		<path d="M515.55,28.2c10.96,0,18.47,5.17,22.53,10.83v-9.73h17.36v68.2h-17.36v-9.97c-4.06,5.91-11.82,11.08-22.65,11.08
			c-17.24,0-31.02-14.16-31.02-35.46C484.4,41.87,498.19,28.2,515.55,28.2z M519.98,43.34c-9.23,0-17.97,6.89-17.97,19.82
			s8.74,20.31,17.97,20.31c9.48,0,18.1-7.14,18.1-20.07S529.46,43.34,519.98,43.34z"/>
		<path d="M589.53,97.51h-17.24v-68.2h17.24V39.9c4.31-7.02,11.45-11.57,20.93-11.57v18.1h-4.56c-10.22,0-16.37,3.94-16.37,17.11
			V97.51z"/>
		<path d="M629.66,98.37c-6.28,0-10.71-4.43-10.71-10.09c0-5.66,4.43-10.1,10.71-10.1c6.03,0,10.46,4.43,10.46,10.1
			C640.12,93.94,635.69,98.37,629.66,98.37z"/>
		<path d="M718.42,97.51h-17.36v-8.62c-4.31,5.79-11.82,9.48-20.31,9.48c-15.88,0-27.33-10.34-27.33-29.05V29.31h17.24v37.55
			c0,10.96,6.03,16.87,15.14,16.87c9.36,0,15.27-5.91,15.27-16.87V29.31h17.36V97.51z"/>
		<path d="M781.2,43.22l-30.04,40.13h30.41v14.16h-49.98V83.6l29.79-40.13h-29.67V29.31h49.49V43.22z"/>
	</g>
	<circle fill="#4EBA6F" cx="97.04" cy="11.04" r="10.64"/>
</g>
</svg>
