<?xml version="1.0" encoding="utf-8"?>
<!-- Generator: Adobe Illustrator 26.0.1, SVG Export Plug-In . SVG Version: 6.00 Build 0)  -->
<svg version="1.0" id="Layer_1" xmlns="http://www.w3.org/2000/svg" xmlns:xlink="http://www.w3.org/1999/xlink" x="0px" y="0px"
	 viewBox="0 0 914.55 206.81" enable-background="new 0 0 914.55 206.81" xml:space="preserve">
<g>
	<g>
		<path d="M120.42,113.1H83.61v36.56H66.37V63.74h17.23v35.33h36.81V63.74h17.23v85.93h-17.23V113.1z"/>
		<path d="M152.79,63.24c0-5.66,4.43-10.09,10.59-10.09c6.03,0,10.59,4.43,10.59,10.09s-4.55,10.09-10.59,10.09
			C157.22,73.34,152.79,68.91,152.79,63.24z M154.64,81.46h17.23v68.2h-17.23V81.46z"/>
		<path d="M188.86,58.57h17.23v51.83l22.9-28.93h22.41l-30.04,34.22l30.28,33.98h-22.41l-23.14-29.05v29.05h-17.23V58.57z"/>
		<path d="M356.16,112c0-10.83-6.03-16.5-15.14-16.5c-9.23,0-15.27,5.66-15.27,16.5v37.67h-17.24V112c0-10.83-6.03-16.5-15.14-16.5
			c-9.36,0-15.39,5.66-15.39,16.5v37.67h-17.23v-68.2h17.23v8.25c4.31-5.66,11.57-9.23,20.07-9.23c10.59,0,19.33,4.55,24.01,13.05
			c4.43-7.76,13.42-13.05,23.39-13.05c16.37,0,27.95,10.34,27.95,29.18v40.01h-17.24V112z"/>
		<path d="M416.47,80.36c10.96,0,18.47,5.17,22.53,10.83v-9.73h17.36v68.2H439v-9.97c-4.06,5.91-11.82,11.08-22.65,11.08
			c-17.24,0-31.02-14.16-31.02-35.46C385.33,94.02,399.11,80.36,416.47,80.36z M420.9,95.5c-9.23,0-17.97,6.89-17.97,19.82
			s8.74,20.31,17.97,20.31c9.48,0,18.1-7.14,18.1-20.07S430.38,95.5,420.9,95.5z"/>
		<path d="M475.93,95.62h-8.12V81.46h8.12V64.6h17.36v16.87h15.27v14.16h-15.27v32.99c0,4.55,1.85,6.52,7.26,6.52h8v14.53h-10.83
			c-13.05,0-21.79-5.54-21.79-21.17V95.62z"/>
		<path d="M520.98,58.57h17.24v91.1h-17.24V58.57z"/>
		<path d="M581.92,80.36c10.96,0,18.47,5.17,22.53,10.83v-9.73h17.36v68.2h-17.36v-9.97c-4.06,5.91-11.82,11.08-22.65,11.08
			c-17.24,0-31.02-14.16-31.02-35.46C550.77,94.02,564.56,80.36,581.92,80.36z M586.35,95.5c-9.23,0-17.97,6.89-17.97,19.82
			s8.74,20.31,17.97,20.31c9.48,0,18.1-7.14,18.1-20.07S595.83,95.5,586.35,95.5z"/>
		<path d="M655.9,149.67h-17.24v-68.2h17.24v10.59c4.31-7.02,11.45-11.57,20.93-11.57v18.1h-4.56c-10.22,0-16.37,3.94-16.37,17.11
			V149.67z"/>
		<path d="M696.03,150.53c-6.28,0-10.71-4.43-10.71-10.09c0-5.66,4.43-10.1,10.71-10.1c6.03,0,10.46,4.43,10.46,10.1
			C706.49,146.1,702.06,150.53,696.03,150.53z"/>
		<path d="M784.79,149.67h-17.36v-8.62c-4.31,5.79-11.82,9.48-20.31,9.48c-15.88,0-27.33-10.34-27.33-29.05V81.46h17.24v37.55
			c0,10.96,6.03,16.87,15.14,16.87c9.36,0,15.27-5.91,15.27-16.87V81.46h17.36V149.67z"/>
		<path d="M847.57,95.38l-30.04,40.13h30.41v14.16h-49.98v-13.91l29.79-40.13h-29.67V81.46h49.49V95.38z"/>
	</g>
	<circle fill="#4EBA6F" cx="163.41" cy="63.2" r="10.64"/>
</g>
</svg>
